# xmcd
#
# Track frame offsets:
# 150
# 17550
# 34644
# 46454
# 64105
# 79488
# 102515
# 126667
# 148540
# 162040
#
# Disc length: 2376 seconds
#
#
# Revision: 0
# Processed by: cddbd v1.5.2PL0 Copyright (c) Steve Scherf et al.
# Submitted via: Nero 7, 11, 10, 0 
#
DISCID=8809460a
DTITLE=Jesse Yawn - ForeverMore
DYEAR=1997
DGENRE=Blues
TTITLE0=I Got The Blues
TTITLE1=To Share My Love
TTITLE2=Hey Meola
TTITLE3=Sweeter As The Years Go By
TTITLE4=Brand New Dance
TTITLE5=Sittin' and Wonderin'
TTITLE6=Don't Try To Change Me
TTITLE7=Catch Me When I Fall
TTITLE8=I Am The Wolf
TTITLE9=ForeverMore
EXTD=
EXTT0=I Got The Blues
EXTT1=To Share My Love
EXTT2=Hey Meola
EXTT3=Sweeter As The Years Go By
EXTT4=Brand New Dance
EXTT5=Sittin' and Wonderin'
EXTT6=Don't Try To Change Me
EXTT7=Catch Me When I Fall
EXTT8=I Am The Wolf
EXTT9=ForeverMore
PLAYORDER=
